PathFileType	4	(X/Y/Z)	41_2_30_p0_0-237.trc
DataRate	CameraRate	NumFrames	NumMarkers	Units	OrigDataRate	OrigDataStartFrame	OrigNumFrames
60.0	60.0	5	27	m	60.0	89	238
Frame#	Time	RHip			RKnee			RAnkle			RBigToe			RSmallToe			RHeel			LHip			LKnee			LAnkle			LBigToe			LSmallToe			LHeel			Neck			Head			Nose			RShoulder			RElbow			RWrist			RThumb			RIndex			RPinky			LShoulder			LElbow			LWrist			LThumb			LIndex			LPinky			
		X1	Y1	Z1	X2	Y2	Z2	X3	Y3	Z3	X4	Y4	Z4	X5	Y5	Z5	X6	Y6	Z6	X7	Y7	Z7	X8	Y8	Z8	X9	Y9	Z9	X10	Y10	Z10	X11	Y11	Z11	X12	Y12	Z12	X13	Y13	Z13	X14	Y14	Z14	X15	Y15	Z15	X16	Y16	Z16	X17	Y17	Z17	X18	Y18	Z18	X19	Y19	Z19	X20	Y20	Z20	X21	Y21	Z21	X22	Y22	Z22	X23	Y23	Z23	X24	Y24	Z24	X25	Y25	Z25	X26	Y26	Z26	X27	Y27	Z27	
89	1.4833333333333334	0.3864390427945824	0.528921533323682	-0.01806633432120623	0.396513696606656	0.6548863510640371	0.38064498197777336	0.37678903918279344	0.715603275322052	0.7321912075643462	0.3598916454703278	0.5337721623404887	0.745278959089406	0.4258704326848331	0.5520395812973217	0.7469563996203049	0.36046330562252227	0.8043724064121119	0.7924537141324673	0.20254531623669852	0.5453136584993594	-0.026198943866661027	0.17239923840063542	0.6558066226341146	0.38429450439497964	0.17400059829020512	0.7111730456139168	0.7286565739073332	0.18611837750531093	0.5133407497941264	0.7318688354206767	0.13799825045082892	0.5824513282506969	0.7526574846720963	0.1940730631699294	0.745312215206677	0.7794024049650613	0.2853169597585763	0.5289078800647258	-0.5667772570430031	0.2757205030076588	0.5029271353022279	-0.800724833952616	0.2827574617160304	0.4059453245263729	-0.6820646439152298	0.44060768683192564	0.5630465495452961	-0.4471657960297091	0.5285747007979502	0.5252316138143761	-0.23503941674921466	0.38013750061930224	0.40140029169761454	-0.17584714088117823	0.25964542979005895	0.34885249259071494	-0.22854847736509878	0.2324327933667945	0.3619735902443986	-0.18358099156343136	0.26746226906411574	0.41311453330910913	-0.11007179529361999	0.1331729629588442	0.5672251263208876	-0.4797518935373482	0.060725764065296305	0.5167509655546154	-0.27104780491254354	0.16523756195090153	0.4240490444682805	-0.18772098083621294	0.23814048536903748	0.39907042943625193	-0.2046913346211405	0.2637424729842304	0.40466561893812014	-0.1756922778425882	0.25662245013950585	0.4158327725523514	-0.10343006261333834
90	1.5	0.3864537686934649	0.5288753988902345	-0.017977927703714862	0.3917536899397167	0.6411440915474644	0.37573168846483634	0.3789251411838064	0.6962130839836399	0.7181010083680105	0.35996984436122287	0.5336382259083825	0.7451132455087052	0.42422982173340373	0.5231588763352233	0.7318658657672041	0.36048898171565213	0.8042649787188366	0.7923864274478728	0.20333325856054896	0.5467042981019843	-0.021586832709316755	0.17233760745522286	0.6555886988834954	0.38423723576738067	0.17402930737701686	0.7109439862078428	0.7286034984136545	0.18212994352520726	0.5120563162918165	0.7279704271941422	0.13799020530512823	0.582416808439742	0.7526464598936548	0.19392188244362046	0.7446302022736129	0.7792396080994571	0.28529688394796593	0.5288379350809661	-0.5668156623396443	0.2757768214437361	0.5029683260009032	-0.8007375642038643	0.2827934527978364	0.4058324024854687	-0.6820738727953716	0.4406091946761952	0.5628961282786998	-0.4471896964388193	0.5277347656804381	0.5240900894662659	-0.23892038089588996	0.3767651197967009	0.4133080729278526	-0.17660950030678596	0.25957192506182325	0.3492062943062264	-0.22852583028932225	0.23590648956906404	0.3729281486632257	-0.18125835178068245	0.2673841531635816	0.4132541056630362	-0.11006277274397452	0.13312764240520347	0.5672482236991612	-0.479737826640961	0.060720415402899304	0.5165877334700301	-0.2710890822463482	0.16498365605341256	0.43737952894954546	-0.18495087266719004	0.2419478734560646	0.3986005114137244	-0.20183798304257736	0.2637847339976397	0.4048124736908962	-0.17560320999233953	0.2566369702951774	0.4159682538598106	-0.1033820411675188
91	1.5166666666666666	0.39139489971881036	0.5402713102654877	-0.011107971844961513	0.39585733020720043	0.655913587159223	0.3853886873192835	0.37530788994647074	0.6835011066004381	0.7165218753426033	0.3560659874530358	0.5218391736598138	0.7387844561875542	0.42447444466989737	0.5237852768587219	0.7320045598591401	0.3557416274474725	0.7900754689032599	0.7853494175250701	0.20333851086894042	0.546766985570244	-0.02152846349857081	0.1723500474740226	0.6555529109161298	0.3841717424193871	0.1740267051033513	0.7108612643008677	0.7285041901042439	0.1820956719424953	0.5116867317970035	0.7277933237879841	0.13802769243366284	0.5822739612582651	0.7525506408786378	0.19410680230729516	0.7448388397195983	0.779072767321064	0.285293288617067	0.5287951385379871	-0.5668600963677227	0.2757858095136863	0.5030005448136834	-0.8006942142139812	0.2828166517860066	0.4060151169580276	-0.6820995755088562	0.4354542631976943	0.5496896079864733	-0.45218723970529645	0.5277011092232823	0.5241112906439902	-0.23889580268964955	0.37940731404463923	0.40033723094612705	-0.179679067362731	0.2596257082431488	0.34919056295418094	-0.22855297807483815	0.23591952672570904	0.37285385426975093	-0.1812170356896847	0.26741981664732045	0.41276782048949784	-0.11006566470377785	0.13313018671611718	0.5672857384437008	-0.47975450061097846	0.0604695662929126	0.517297259569333	-0.27457106255076147	0.16122714816601355	0.43643428745520246	-0.18497785571524578	0.238002487057326	0.39912779013411886	-0.20471705429521486	0.2634027761600929	0.4051518173242446	-0.17546067904240745	0.2565081307912389	0.4159560378535706	-0.1034538701016383
92	1.5333333333333334	0.391119139884332	0.5412299447371851	-0.014792889947446613	0.39552708959345984	0.6572070568631563	0.38167212566219433	0.37674886898706283	0.7155218847004877	0.732084552540381	0.35577491113446374	0.5215078721343391	0.7388483191528328	0.424270916948153	0.5232683336379818	0.7318079678526258	0.3564935250113515	0.7897407977236556	0.7798006869440295	0.20339676787312877	0.5467228945633499	-0.021389859635440902	0.1723434293689904	0.6555444452201048	0.38418304694739036	0.17402359599749082	0.710854685910167	0.728473450161994	0.18217518863011606	0.5119343052500457	0.7278228798532073	0.1380240433427208	0.582348418701514	0.752548021722385	0.1939411565880773	0.7450671965606197	0.7794984154124442	0.28533812036067224	0.5288290867553076	-0.5669129205014848	0.2757979104728366	0.5030178952213992	-0.8007289954788335	0.28279597022992564	0.4060721525168708	-0.6820984846627483	0.44080734454592335	0.5629044446903698	-0.4472056074089758	0.5276555780906043	0.5242676729556337	-0.23880328582282942	0.37660709971959033	0.41327805534990775	-0.17653613848368746	0.2597175628344289	0.3487593289655102	-0.2285256855687743	0.23210251234708307	0.36200222242210894	-0.1799400620399588	0.2628184619151987	0.4133961276802559	-0.10648746700170122	0.13311607106896398	0.5673753303897401	-0.4797709774881213	0.06045705416472156	0.5172234625246258	-0.27467891682642764	0.1617657167123705	0.43757217715277047	-0.18074788391209723	0.23786802386966185	0.3990579480215985	-0.20469395535776763	0.25930173015899743	0.4034751384772973	-0.17560187880674138	0.2522932793943195	0.4155381771324952	-0.10333136843960802
93	1.55	0.3910902854069829	0.5414124155987419	-0.01475446954292586	0.3955681941838393	0.6572871759901249	0.3817720444816301	0.37671633876399047	0.7155180064834931	0.7320506350517424	0.3559325849470517	0.521771504223337	0.7388147043507833	0.4243737778715881	0.5234787434322652	0.7318391312603983	0.3564511525168367	0.789746477731529	0.7797610087420425	0.20337426840057005	0.5468906375209868	-0.02140850540346815	0.17236337166714938	0.6556025784667748	0.3842287689570926	0.17401221158227503	0.7110828063324977	0.7286579570859807	0.1868952469955985	0.5123960828961466	0.7278846466871518	0.1379547358382992	0.5824547292499722	0.7526399768899451	0.19400418273939	0.7451237436988947	0.779402567604054	0.285842608919503	0.5298346385017206	-0.5630953321192003	0.2757659082111432	0.5029641683770092	-0.8007328796536789	0.2827873183721464	0.40615782532918737	-0.6820741797739223	0.43552447487642526	0.54979859897708	-0.452136960824549	0.5276712544150939	0.5240752496107048	-0.23887335422235526	0.3773697427196438	0.41434724868145006	-0.17267644722301748	0.2597732686107511	0.34945931327763574	-0.22864226291375017	0.2359441423958878	0.3729628207048662	-0.1810374744242512	0.26321516348399504	0.41371297067830404	-0.10967913134066469	0.13314590669226342	0.5672591441029637	-0.47978170581284635	0.060444149147277984	0.5174032190820681	-0.27470562851788033	0.16180509148133743	0.43756762240648595	-0.1807354531286617	0.23791618150496172	0.39901719856495177	-0.20477037816407753	0.2592948303587377	0.4032163249338619	-0.1757340546890618	0.25231067105882027	0.41539034396023555	-0.1034558247036555
